<?xml version="1.0" standalone="no"?>
<!DOCTYPE svg PUBLIC "-//W3C//DTD SVG 20010904//EN"
 "http://www.w3.org/TR/2001/REC-SVG-20010904/DTD/svg10.dtd">
<svg version="1.0" xmlns="http://www.w3.org/2000/svg"
 width="600.000000pt" height="600.000000pt" viewBox="0 0 600.000000 600.000000"
 preserveAspectRatio="xMidYMid meet">
<metadata>
Created by potrace 1.14, written by Peter Selinger 2001-2017
</metadata>
<g transform="translate(0.000000,600.000000) scale(0.100000,-0.100000)"
fill="#000000" stroke="none">
<path d="M1705 5250 l-1290 -748 0 -1502 0 -1503 1289 -748 1290 -747 35 18
c20 11 601 347 1291 747 l1255 729 0 1504 0 1504 -1254 727 c-690 400 -1271
736 -1290 747 l-36 21 -1290 -749z m2731 -866 c302 -289 555 -532 563 -539 11
-11 -43 -71 -323 -362 -185 -191 -347 -352 -359 -356 -20 -7 -1111 -157 -1144
-157 -7 0 206 246 474 548 268 301 470 533 448 515 -22 -17 -272 -232 -555
-476 -356 -308 -516 -440 -518 -428 -4 23 138 1115 146 1122 302 284 708 659
713 659 3 0 253 -237 555 -526z m-1986 187 c179 -161 333 -301 344 -311 15
-15 32 -112 97 -561 44 -299 78 -553 77 -563 -2 -14 -131 88 -551 438 -302
252 -550 456 -551 454 -2 -2 214 -239 480 -527 266 -289 482 -526 481 -527 -1
-2 -257 28 -567 66 -311 38 -573 70 -584 70 -11 0 -155 139 -360 346 -187 190
-342 349 -344 353 -1 4 248 252 554 550 553 540 556 543 577 524 11 -10 167
-150 347 -312z m359 -1658 c-13 -16 -863 -975 -933 -1052 -30 -33 96 74 778
662 171 147 311 265 313 263 2 -2 -29 -257 -69 -566 l-73 -563 -357 -333
c-196 -184 -359 -334 -362 -334 -10 0 -1121 1070 -1121 1080 0 5 152 166 337
358 l337 349 133 18 c73 9 322 43 553 75 231 32 433 58 449 59 26 1 27 -1 15
-16z m966 -59 l550 -65 348 -347 c191 -191 346 -349 345 -352 -2 -3 -214 -212
-473 -464 -258 -253 -509 -497 -557 -544 l-86 -85 -366 332 c-201 183 -366
336 -366 340 0 4 -36 256 -79 561 -44 305 -79 555 -78 556 1 1 254 -208 562
-464 308 -256 551 -454 540 -442 -11 13 -230 253 -487 532 -258 279 -468 510
-468 513 0 3 15 3 33 0 17 -3 280 -34 582 -71z"/>
</g>
</svg>
